<?xml version="1.0" encoding="iso-8859-1"?>
<!-- Generator: Adobe Illustrator 19.0.0, SVG Export Plug-In . SVG Version: 6.00 Build 0)  -->
<svg xmlns="http://www.w3.org/2000/svg" xmlns:xlink="http://www.w3.org/1999/xlink" version="1.1" id="Capa_1" x="0px" y="0px" viewBox="0 0 109.777 109.777" style="enable-background:new 0 0 109.777 109.777;" xml:space="preserve" width="512px" height="512px">
<g id="_x30_204-tornado-twister-icon">
	<g>
		<path style="fill-rule:evenodd;clip-rule:evenodd;" d="M77.142,0C86.188,0.17,76.682,0.021,77.142,0    c-6.013,0.258-12.324,1.065-18.187,2.746c-4.837,1.388-11.716,3.51-15.334,7.112c-2.273,2.267-8.811,7.828-2.438,9.94    c3.054,1.012,6.179,0.983,9.332,0.757c2.816-0.204,5.362-0.287,7.838-1.694c1.002-0.569,4.743-2.04,3.271-3.733    c-1.351-1.554-7.024,1.458-8.939,1.427c-1.212-0.019-6.656-0.423-5.345-2.572c1.322-2.17,4.129-2.774,6.342-3.6    c6.45-2.397,13.099-3.515,19.982-3.963c3.787-0.247,7.576-0.292,11.368-0.404c2.555-0.08,7.811-1.072,7.219,2.962    c-0.232,1.595-1.502,2.098-2.738,2.743c-1.697,0.883-3.262,1.973-5.001,2.797c-3.613,1.719-7.432,2.957-11.236,4.174    c-8.383,2.681-16.981,5.271-25.732,6.389c-7.33,0.935-14.721,1.096-21.991-0.066c-2.305-0.367-6.521-1.449-7.704-3.707    c-1.48-2.822,4.16-6.338,6.048-7.6c6.132-4.102,13.116-6.562,19.654-9.59c1.034-0.48,1.54-1.118,1.269-2.321    c-1.673-0.905-3.594-0.516-5.386-0.358c-4.368,0.991-8.393,2.732-12.45,4.61c-5.953,2.758-14.536,6.494-15.787,13.751    c-1.218,7.077,8.053,10.098,13.152,11.447c-1.166,3.387-1.796,6.744,1.258,9.337c3.939,3.347,8.684,4.119,13.812,4.504    c4.393,0.33,8.527-0.378,12.79-0.488c3.307-0.088,6.331-1.42,9.509-2.081c4.272-0.889,8.235-2.727,12.339-4.12    c4.7-1.594,9.831-4.033,13.739-7.129c0.998-0.789,2.196-1.977,1.818-3.387c-0.343-1.281-1.641-1.702-2.836-1.402    c-3.487,0.879-6.727,2.541-10.046,3.876c-3.949,1.593-7.958,3.189-11.983,4.505c-3.526,1.152-7.419,1.537-10.812,2.846    c-3.94,1.519-9.416,1.413-13.68,1.463c-3.204,0.036-7.638-0.258-10.491-1.924c-1.189-0.695-1.95-1.81-2.154-3.178    c-0.327-2.202,0.445-2.225,2.261-2.082c5.392,0.421,11.509,0.363,16.86-0.347c10.292-1.365,19.98-4.19,29.865-7.222    c4.829-1.481,10.278-3.613,14.336-6.673c2.846-2.143,7.755-5.616,7.755-9.483C98.689-0.935,83.297,0.115,77.142,0z M84.86,41.852    c-1.451-0.123-4.04,1.459-5.403,2.059c-1.211,0.538-2.396,1.037-3.632,1.456c-1.098,0.374-1.842,1.112-2.874,1.648    c-0.227,0.117-0.453,0.232-0.679,0.348c-6.502,3.253-13.64,5.07-20.938,5.07c-3.439,0-7.12-0.24-9.987-2.346    c-1.495-1.101-3.62-3.48-5.587-3.5c-3.563-0.038-1.285,4.701-0.041,5.99c2.137,2.202,4.144,3.102,6.918,4.311    c2.186,0.952,1.43,1.007,1.4,3.094c-0.022,1.582,0.643,3.041,1.597,4.272c1.57,2.026,3.413,2.873,5.819,3.655    c6.837,2.226,14.968,1.257,21.614-1.233c1.345-0.504,2.638-1.129,3.931-1.745c0.679-0.321,1.34-0.673,1.982-1.059    c0.08-0.048,1.233-1.314,1.391-1.386c1.173-0.528,5.133-5.026,2.144-5.278c-2.542-0.213-5.11,1.446-7.412,2.311    c-2.99,1.131-5.944,2.406-9.161,3.184c-4.372,1.055-16.99,2.144-17.893-4.527c3.87-0.255,7.636,0.696,11.458-0.089    c4.17-0.852,8.216-2.232,12.066-4.038c3.569-1.673,6.96-3.698,10.264-5.843c1.358-0.885,3.223-1.943,3.983-3.419    C86.397,43.674,86.455,41.986,84.86,41.852z M58.368,75.449c-3.094,0.096-5.49-0.16-7.734-2.254    c-0.845-0.789-1.213-2.314-1.466-3.383c-0.156-0.666-1.186-3.042-1.116-3.375c-0.065,0.309-0.278-0.078,0,0    c-4.784-1.382-3.747,7.922-2.514,10.415c-7.007-1.128-3.938,10.64-1.187,13.11c5.146,4.619,12.133,4.118,18.168,1.655    c1.17-0.476,3.035-2.251,2.776-3.638c-0.643-3.431-7.265-1.088-9.385-0.746c-2.992,0.483-5.93,0.632-8.094-1.774    c-1.84-2.047-2.17-4.891-1.918-7.529c0.015-0.17,1.876,1.096,2.059,1.223c1.058,0.741,2.196,1.37,3.332,1.981    c0.629,0.337,1.152,0.721,1.818,0.842c1.751,0.307,3.925,0.265,5.721,0.265c3.867-0.233,12.604-1.164,14.407-5.541    C75.303,71.682,60.593,75.379,58.368,75.449z M41.323,96.782c-0.037-0.02-0.076-0.042-0.115-0.062    c-1.228-0.678-1.614-2.986-1.032-4.175c0.421-0.859,2.577-3.537,1.197-4.467c-2.293-1.548-4.301,2.261-4.889,3.964    c-0.825,2.394-0.889,4.969-0.284,7.438c-1.815-1.525-3.592,1.293-4.198,2.713c-2.059,4.814,3.915,8.822,8.217,7.227    c0.976-0.364,1.9-1.358,2.157-2.399c0.356-1.432-0.363-2.368-1.699-2.152c-0.789,0.128-2.496,0.701-3.2,0.154    c-0.843-0.655-0.905-2.499-0.592-3.423c0.41-1.207,3.29,1.108,4.544,1.135c2.069,0.039,4.445,0.127,6.341-0.844    c1.105-0.566,2.15-1.92,1.902-3.221C48.928,94.795,43.732,97.984,41.323,96.782z" fill="#933EC5"/>
	</g>
</g>
<g>
</g>
<g>
</g>
<g>
</g>
<g>
</g>
<g>
</g>
<g>
</g>
<g>
</g>
<g>
</g>
<g>
</g>
<g>
</g>
<g>
</g>
<g>
</g>
<g>
</g>
<g>
</g>
<g>
</g>
</svg>
